# xmcd
#
# Track frame offsets:
#	150
#	20682
#	36595
#	53617
#	69397
#	89435
#	111447
#	132395
#	150480
#	173305
#	191612
#	209832
#	231702
#	251247
#	270275
#	288617
#
# Disc length: 4119 seconds
#
# Revision: 1
# Processed by: cddbd v1.5PL3 Copyright (c) Steve Scherf et al.
# Submitted via: CDex 1.50Beta5
#
DISCID=f2101510
DTITLE=田川寿美 - 全曲集/北海岸
DYEAR=1999
DGENRE=Enka
TTITLE0=北海岸
TTITLE1=終電 何時?
TTITLE2=しゃくなげの雨
TTITLE3=おきゃん
TTITLE4=風 岬
TTITLE5=放浪記
TTITLE6=みれん海峡
TTITLE7=女…ひとり旅
TTITLE8=哀愁港
TTITLE9=華観月
TTITLE10=風ぐるま・恋唄
TTITLE11=なみだの港
TTITLE12=信濃路
TTITLE13=春の雨
TTITLE14=ほとゝぎす
TTITLE15=おもいで岬
EXTD=
EXTT0=
EXTT1=
EXTT2=
EXTT3=
EXTT4=
EXTT5=
EXTT6=
EXTT7=
EXTT8=
EXTT9=
EXTT10=
EXTT11=
EXTT12=
EXTT13=
EXTT14=
EXTT15=
PLAYORDER=
